# xmcd CD database file
#
# Track frame offsets:
#	150
#	31800
#	63415
#
# Disc length: 1264 seconds
#
# Revision: 1
# Processed by: cddbd v1.5.2PL0 Copyright (c) Steve Scherf et al.
# Submitted via: CDex 1.70beta2
#
DISCID=1d04ee03
DTITLE=つボイノリオ - インカ帝国の成立
DYEAR=2007
DGENRE=Comedy
TTITLE0=インカ帝国の成立
TTITLE1=インカ帝国の成立（学校放送向け）
TTITLE2=インカ帝国の成立(カラオケ)
EXTD=YEAR: 2007
EXTT0=
EXTT1=
EXTT2=
PLAYORDER=
